<svg xmlns="http://www.w3.org/2000/svg" xmlns:xlink="http://www.w3.org/1999/xlink" version="1.1" x="0px" y="0px" viewBox="0 0 100 125" style="enable-background:new 0 0 100 100;" xml:space="preserve"><path d="M77.964,18.06v-2.87c0-1.452-1.182-2.634-2.634-2.634h-2.179c-1.452,0-2.634,1.182-2.634,2.634v2.813H53.547V15.19  c0-1.452-1.182-2.634-2.634-2.634h-2.179c-1.452,0-2.634,1.182-2.634,2.634v2.813H29.13V15.19c0-1.452-1.182-2.634-2.634-2.634  h-2.178c-1.452,0-2.634,1.182-2.634,2.634v2.92c-3.66,0.595-6.405,3.739-6.405,7.548v54.13c0,4.221,3.435,7.656,7.655,7.656h54.13  c4.222,0,7.656-3.435,7.656-7.656v-54.13C84.721,21.741,81.762,18.507,77.964,18.06z M72.518,15.19c0-0.35,0.284-0.634,0.634-0.634  h2.179c0.35,0,0.634,0.284,0.634,0.634v7.625c0,0.35-0.284,0.634-0.634,0.634h-2.179c-0.35,0-0.634-0.284-0.634-0.634V15.19z   M48.101,15.19c0-0.35,0.284-0.634,0.634-0.634h2.179c0.35,0,0.634,0.284,0.634,0.634v7.625c0,0.35-0.284,0.634-0.634,0.634h-2.179  c-0.35,0-0.634-0.284-0.634-0.634V15.19z M23.685,15.19c0-0.35,0.284-0.634,0.634-0.634h2.178c0.35,0,0.634,0.284,0.634,0.634v7.625  c0,0.35-0.284,0.634-0.634,0.634h-2.178c-0.35,0-0.634-0.284-0.634-0.634V15.19z M21.685,20.146v2.668  c0,1.452,1.182,2.634,2.634,2.634h2.178c1.452,0,2.634-1.182,2.634-2.634v-2.812h16.971v2.812c0,1.452,1.182,2.634,2.634,2.634  h2.179c1.452,0,2.634-1.182,2.634-2.634v-2.812h16.971v2.812c0,1.452,1.182,2.634,2.634,2.634h2.179  c1.452,0,2.634-1.182,2.634-2.634v-2.734c2.692,0.433,4.757,2.765,4.757,5.577v9.732H17.279v-9.732  C17.279,22.958,19.146,20.712,21.685,20.146z M77.064,85.444h-54.13c-3.118,0-5.655-2.537-5.655-5.656V37.39h65.441v42.398  C82.721,82.907,80.184,85.444,77.064,85.444z"/><path d="M24.135,53.763h11.22V42.544h-11.22V53.763z M26.135,44.544h7.22v7.219h-7.22V44.544z"/><path d="M37.521,53.763H48.74V42.544H37.521V53.763z M39.521,44.544h7.219v7.219h-7.219V44.544z"/><path d="M50.907,53.763h11.22V42.544h-11.22V53.763z M52.907,44.544h7.22v7.219h-7.22V44.544z"/><path d="M24.135,67.405h11.22v-11.22h-11.22V67.405z M26.135,58.185h7.22v7.22h-7.22V58.185z"/><path d="M37.521,67.405H48.74v-11.22H37.521V67.405z M39.521,58.185h7.219v7.22h-7.219V58.185z"/><path d="M50.907,67.405h11.22v-11.22h-11.22V67.405z M52.907,58.185h7.22v7.22h-7.22V58.185z"/><path d="M50.907,81.046h11.22V69.827h-11.22V81.046z M52.907,71.827h7.22v7.219h-7.22V71.827z"/><path d="M64.293,53.763h11.22V42.544h-11.22V53.763z M66.293,44.544h7.22v7.219h-7.22V44.544z"/><path d="M64.293,67.405h11.22v-11.22h-11.22V67.405z M66.293,58.185h7.22v7.22h-7.22V58.185z"/><path d="M64.293,81.046h11.22V69.827h-11.22V81.046z M66.293,71.827h7.22v7.219h-7.22V71.827z"/><path d="M24.135,81.046h11.22V69.827h-11.22V81.046z M26.135,71.827h7.22v7.219h-7.22V71.827z"/><path d="M37.521,81.046H48.74V69.827H37.521V81.046z M39.521,71.827h7.219v7.219h-7.219V71.827z"/><text x="0" y="115" fill="#000000" font-size="5px" font-weight="bold" font-family="'Helvetica Neue', Helvetica, Arial-Unicode, Arial, Sans-serif">Created by Alina Oleynik</text><text x="0" y="120" fill="#000000" font-size="5px" font-weight="bold" font-family="'Helvetica Neue', Helvetica, Arial-Unicode, Arial, Sans-serif">from the Noun Project</text></svg>