<?xml version="1.0" encoding="UTF-8" standalone="no"?>
<!-- Created with Inkscape (http://www.inkscape.org/) -->

<svg
   xmlns:dc="http://purl.org/dc/elements/1.1/"
   xmlns:cc="http://creativecommons.org/ns#"
   xmlns:rdf="http://www.w3.org/1999/02/22-rdf-syntax-ns#"
   xmlns:svg="http://www.w3.org/2000/svg"
   xmlns="http://www.w3.org/2000/svg"
   xmlns:sodipodi="http://sodipodi.sourceforge.net/DTD/sodipodi-0.dtd"
   xmlns:inkscape="http://www.inkscape.org/namespaces/inkscape"
   width="168.57988mm"
   height="30.041649mm"
   viewBox="0 0 597.33029 106.44679"
   id="svg6854"
   version="1.1"
   inkscape:version="0.91 r13725"
   sodipodi:docname="logo-horizontal.svg">
  <defs
     id="defs6856">
    <clipPath
       clipPathUnits="userSpaceOnUse"
       id="clipPath4624">
      <path
         d="m 658.273,2600.409 -4.402,-7.043 2.739,0 5.185,7.043 -3.522,0 z m -165.531,0 -4.402,-7.043 2.739,0 5.185,7.043 -3.522,0 z m 91.82,-3.414 c -1.702,-1.037 -3.16,-2.494 -4.373,-4.373 l 0,0 c -1.214,-1.878 -2.153,-4.138 -2.818,-6.779 l 0,0 c -0.665,-2.641 -0.998,-5.548 -0.998,-8.717 l 0,0 c 0,-3.248 0.333,-6.172 0.998,-8.774 l 0,0 c 0.665,-2.602 1.604,-4.823 2.818,-6.662 l 0,0 c 1.213,-1.839 2.661,-3.248 4.343,-4.227 l 0,0 c 1.683,-0.978 3.541,-1.467 5.576,-1.467 l 0,0 15.261,0 0,3.581 -8.452,0 0,0.117 c 1.018,0.548 1.966,1.399 2.847,2.553 l 0,0 c 0.88,1.155 1.633,2.513 2.259,4.08 l 0,0 c 0.626,1.565 1.116,3.287 1.468,5.165 l 0,0 c 0.351,1.878 0.528,3.796 0.528,5.752 l 0,0 c 0,3.091 -0.332,5.948 -0.997,8.57 l 0,0 c -0.665,2.621 -1.595,4.871 -2.789,6.75 l 0,0 c -1.193,1.878 -2.641,3.345 -4.343,4.402 l 0,0 c -1.703,1.056 -3.59,1.585 -5.665,1.585 l 0,0 c -2.073,0 -3.961,-0.519 -5.663,-1.556 m 1.702,-35.892 c -1.194,0.9 -2.202,2.132 -3.023,3.698 l 0,0 c -0.822,1.565 -1.458,3.404 -1.908,5.517 l 0,0 c -0.45,2.112 -0.675,4.383 -0.675,6.808 l 0,0 c 0,2.466 0.215,4.765 0.646,6.897 l 0,0 c 0.431,2.133 1.056,3.982 1.878,5.547 l 0,0 c 0.822,1.565 1.83,2.798 3.023,3.698 l 0,0 c 1.193,0.9 2.534,1.35 4.02,1.35 l 0,0 c 1.488,0 2.818,-0.45 3.992,-1.35 l 0,0 c 1.174,-0.9 2.172,-2.142 2.993,-3.727 l 0,0 c 0.822,-1.585 1.448,-3.444 1.879,-5.576 l 0,0 c 0.43,-2.133 0.646,-4.412 0.646,-6.839 l 0,0 c 0,-2.269 -0.205,-4.45 -0.617,-6.544 l 0,0 c -0.411,-2.093 -1.018,-3.942 -1.82,-5.547 l 0,0 c -0.802,-1.605 -1.79,-2.885 -2.964,-3.844 l 0,0 c -1.174,-0.959 -2.524,-1.438 -4.05,-1.438 l 0,0 c -1.487,0 -2.827,0.45 -4.02,1.35 m -167.234,35.892 c -1.703,-1.037 -3.16,-2.494 -4.373,-4.373 l 0,0 c -1.213,-1.878 -2.152,-4.138 -2.817,-6.779 l 0,0 c -0.666,-2.641 -0.998,-5.548 -0.998,-8.717 l 0,0 c 0,-3.248 0.332,-6.172 0.998,-8.774 l 0,0 c 0.665,-2.602 1.604,-4.823 2.817,-6.662 l 0,0 c 1.213,-1.839 2.661,-3.248 4.343,-4.227 l 0,0 c 1.683,-0.978 3.542,-1.467 5.577,-1.467 l 0,0 15.26,0 0,3.581 -8.452,0 0,0.117 c 1.018,0.548 1.967,1.399 2.847,2.553 l 0,0 c 0.88,1.155 1.634,2.513 2.26,4.08 l 0,0 c 0.625,1.565 1.115,3.287 1.467,5.165 l 0,0 c 0.353,1.878 0.528,3.796 0.528,5.752 l 0,0 c 0,3.091 -0.332,5.948 -0.997,8.57 l 0,0 c -0.666,2.621 -1.595,4.871 -2.788,6.75 l 0,0 c -1.194,1.878 -2.642,3.345 -4.345,4.402 l 0,0 c -1.701,1.056 -3.589,1.585 -5.663,1.585 l 0,0 c -2.074,0 -3.962,-0.519 -5.664,-1.556 m 1.702,-35.892 c -1.193,0.9 -2.201,2.132 -3.023,3.698 l 0,0 c -0.821,1.565 -1.457,3.404 -1.907,5.517 l 0,0 c -0.45,2.112 -0.675,4.383 -0.675,6.808 l 0,0 c 0,2.466 0.215,4.765 0.645,6.897 l 0,0 c 0.43,2.133 1.057,3.982 1.878,5.547 l 0,0 c 0.822,1.565 1.83,2.798 3.023,3.698 l 0,0 c 1.194,0.9 2.534,1.35 4.021,1.35 l 0,0 c 1.487,0 2.817,-0.45 3.991,-1.35 l 0,0 c 1.175,-0.9 2.172,-2.142 2.994,-3.727 l 0,0 c 0.821,-1.585 1.448,-3.444 1.878,-5.576 l 0,0 c 0.43,-2.133 0.645,-4.412 0.645,-6.839 l 0,0 c 0,-2.269 -0.205,-4.45 -0.615,-6.544 l 0,0 c -0.412,-2.093 -1.018,-3.942 -1.82,-5.547 l 0,0 c -0.802,-1.605 -1.79,-2.885 -2.965,-3.844 l 0,0 c -1.173,-0.959 -2.523,-1.438 -4.049,-1.438 l 0,0 c -1.487,0 -2.828,0.45 -4.021,1.35 m 319.842,36.45 -6.75,-36.333 -0.117,0 -7.043,36.333 -4.931,0 -6.926,-36.333 -0.118,0 -6.808,36.333 -4.167,0 8.158,-41.557 5.4,0 6.75,35.57 0.118,0 6.808,-35.57 5.401,0 8.216,41.557 -3.991,0 z m -208.203,0 0,-41.557 17.316,0 0,3.698 -13.325,0 0,16.141 11.915,0 0,3.462 -11.915,0 0,14.617 12.738,0 0,3.639 -16.729,0 z m 27.998,-6.682 c -1.044,-0.391 -1.981,-0.986 -2.813,-1.785 l 0,0 c -0.831,-0.799 -1.492,-1.794 -1.981,-2.984 l 0,0 c -0.489,-1.19 -0.733,-2.584 -0.733,-4.182 l 0,0 c 0,-1.369 0.195,-2.568 0.587,-3.595 l 0,0 c 0.391,-1.027 0.905,-1.916 1.54,-2.666 l 0,0 c 0.637,-0.75 1.378,-1.41 2.226,-1.981 l 0,0 c 0.848,-0.57 1.744,-1.085 2.69,-1.54 l 0,0 c 0.783,-0.392 1.525,-0.815 2.226,-1.272 l 0,0 c 0.701,-0.457 1.328,-0.978 1.883,-1.565 l 0,0 c 0.555,-0.588 0.994,-1.256 1.32,-2.006 l 0,0 c 0.327,-0.75 0.49,-1.615 0.49,-2.592 l 0,0 c 0,-2.055 -0.53,-3.636 -1.59,-4.745 l 0,0 c -1.06,-1.108 -2.372,-1.663 -3.937,-1.663 l 0,0 c -1.175,0 -2.332,0.293 -3.473,0.881 l 0,0 c -1.142,0.587 -2.087,1.418 -2.837,2.494 l 0,0 -2.103,-2.397 c 0.912,-1.239 2.111,-2.233 3.595,-2.983 l 0,0 c 1.483,-0.75 3.105,-1.125 4.866,-1.125 l 0,0 c 1.207,0 2.348,0.219 3.424,0.66 l 0,0 c 1.076,0.44 2.013,1.076 2.812,1.907 l 0,0 c 0.801,0.832 1.427,1.843 1.884,3.033 l 0,0 c 0.456,1.191 0.685,2.552 0.685,4.085 l 0,0 c 0,1.402 -0.212,2.625 -0.636,3.668 l 0,0 c -0.424,1.044 -0.994,1.957 -1.712,2.739 l 0,0 c -0.717,0.783 -1.525,1.468 -2.421,2.055 l 0,0 c -0.897,0.586 -1.802,1.108 -2.714,1.564 l 0,0 c -0.719,0.36 -1.411,0.751 -2.079,1.175 l 0,0 c -0.67,0.424 -1.256,0.913 -1.762,1.467 l 0,0 c -0.506,0.555 -0.904,1.19 -1.198,1.908 l 0,0 c -0.294,0.717 -0.44,1.565 -0.44,2.543 l 0,0 c 0,1.109 0.163,2.071 0.489,2.886 l 0,0 c 0.327,0.815 0.751,1.484 1.272,2.005 l 0,0 c 0.521,0.522 1.117,0.905 1.785,1.149 l 0,0 c 0.669,0.245 1.346,0.367 2.03,0.367 l 0,0 c 1.043,0 2.005,-0.203 2.886,-0.611 l 0,0 c 0.88,-0.407 1.646,-1.084 2.299,-2.03 l 0,0 2.103,2.397 c -0.848,1.141 -1.899,1.982 -3.155,2.519 l 0,0 c -1.255,0.538 -2.666,0.807 -4.23,0.807 l 0,0 c -1.143,0 -2.235,-0.195 -3.278,-0.587 m 223.963,-34.875 3.424,0 0,34.63 -3.424,0 0,-34.63 z m -9.293,34.63 -10.859,-15.554 -0.049,0 0,15.554 -3.375,0 0,-34.63 3.375,0 0,17.755 0.049,0 11.544,-17.755 4.108,0 -12.472,18.636 11.64,15.994 -3.961,0 z m -25.631,-34.63 3.424,0 0,34.63 -3.424,0 0,-34.63 z m -63.352,34.63 0,-28.809 -0.147,0 -11.984,28.809 -4.255,0 0,-34.63 3.18,0 0,28.809 0.146,0 12.082,-28.809 4.109,0 0,34.63 -3.131,0 z m -36.831,0 0,-34.63 14.43,0 0,3.082 -11.105,0 0,13.451 9.929,0 0,2.886 -9.929,0 0,12.179 10.615,0 0,3.032 -13.94,0 z m -11.348,-34.63 3.424,0 0,34.63 -3.424,0 0,-34.63 z m -10.957,34.63 0,-22.059 c 0,-1.305 -0.09,-2.568 -0.269,-3.791 l 0,0 c -0.179,-1.223 -0.506,-2.315 -0.978,-3.277 l 0,0 c -0.473,-0.962 -1.133,-1.736 -1.982,-2.323 l 0,0 c -0.847,-0.588 -1.923,-0.881 -3.227,-0.881 l 0,0 c -1.337,0 -2.422,0.293 -3.253,0.881 l 0,0 c -0.833,0.587 -1.483,1.361 -1.958,2.323 l 0,0 c -0.472,0.962 -0.798,2.062 -0.977,3.302 l 0,0 c -0.179,1.239 -0.269,2.494 -0.269,3.766 l 0,0 0,22.059 -3.424,0 0,-22.5 c 0,-1.793 0.163,-3.48 0.489,-5.062 l 0,0 c 0.327,-1.581 0.872,-2.959 1.639,-4.134 l 0,0 c 0.767,-1.173 1.777,-2.094 3.032,-2.763 l 0,0 c 1.256,-0.668 2.813,-1.002 4.672,-1.002 l 0,0 c 1.858,0 3.424,0.334 4.695,1.002 l 0,0 c 1.272,0.669 2.292,1.59 3.057,2.763 l 0,0 c 0.766,1.175 1.321,2.553 1.663,4.134 l 0,0 c 0.343,1.582 0.514,3.269 0.514,5.062 l 0,0 0,22.5 -3.424,0 z m -106.396,0 0,-28.809 -0.146,0 -11.984,28.809 -4.255,0 0,-34.63 3.179,0 0,28.809 0.147,0 12.081,-28.809 4.109,0 0,34.63 -3.131,0 z m -36.831,0 0,-34.63 14.429,0 0,3.082 -11.103,0 0,13.451 9.929,0 0,2.886 -9.929,0 0,12.179 10.614,0 0,3.032 -13.94,0 z m -11.348,-34.63 3.424,0 0,34.63 -3.424,0 0,-34.63 z m -10.956,34.63 0,-22.059 c 0,-1.305 -0.09,-2.568 -0.269,-3.791 l 0,0 c -0.18,-1.223 -0.505,-2.315 -0.979,-3.277 l 0,0 c -0.472,-0.962 -1.133,-1.736 -1.981,-2.323 l 0,0 c -0.848,-0.588 -1.924,-0.881 -3.228,-0.881 l 0,0 c -1.337,0 -2.421,0.293 -3.253,0.881 l 0,0 c -0.831,0.587 -1.483,1.361 -1.956,2.323 l 0,0 c -0.473,0.962 -0.799,2.062 -0.978,3.302 l 0,0 c -0.18,1.239 -0.27,2.494 -0.27,3.766 l 0,0 0,22.059 -3.423,0 0,-22.5 c 0,-1.793 0.163,-3.48 0.489,-5.062 l 0,0 c 0.325,-1.581 0.872,-2.959 1.638,-4.134 l 0,0 c 0.767,-1.173 1.778,-2.094 3.032,-2.763 l 0,0 c 1.256,-0.668 2.813,-1.002 4.672,-1.002 l 0,0 c 1.859,0 3.424,0.334 4.696,1.002 l 0,0 c 1.271,0.669 2.29,1.59 3.057,2.763 l 0,0 c 0.766,1.175 1.32,2.553 1.663,4.134 l 0,0 c 0.342,1.582 0.513,3.269 0.513,5.062 l 0,0 0,22.5 -3.423,0 z m 236.161,-30.051 c -0.508,-0.587 -0.763,-1.272 -0.763,-2.055 l 0,0 c 0,-0.861 0.255,-1.565 0.763,-2.113 l 0,0 c 0.51,-0.548 1.155,-0.822 1.937,-0.822 l 0,0 c 0.783,0 1.438,0.274 1.967,0.822 l 0,0 c 0.528,0.548 0.792,1.252 0.792,2.113 l 0,0 c 0,0.783 -0.264,1.468 -0.792,2.055 l 0,0 c -0.529,0.587 -1.184,0.88 -1.967,0.88 l 0,0 c -0.782,0 -1.427,-0.293 -1.937,-0.88"
         id="path4626"
         inkscape:connector-curvature="0" />
    </clipPath>
  </defs>
  <sodipodi:namedview
     id="base"
     pagecolor="#ffffff"
     bordercolor="#666666"
     borderopacity="1.0"
     inkscape:pageopacity="0.0"
     inkscape:pageshadow="2"
     inkscape:zoom="0.70000001"
     inkscape:cx="187.55565"
     inkscape:cy="45.678533"
     inkscape:document-units="px"
     inkscape:current-layer="layer1"
     showgrid="false"
     fit-margin-top="0"
     fit-margin-left="0"
     fit-margin-right="0"
     fit-margin-bottom="0"
     inkscape:window-width="1360"
     inkscape:window-height="704"
     inkscape:window-x="0"
     inkscape:window-y="27"
     inkscape:window-maximized="1" />
  <metadata
     id="metadata6859">
    <rdf:RDF>
      <cc:Work
         rdf:about="">
        <dc:format>image/svg+xml</dc:format>
        <dc:type
           rdf:resource="http://purl.org/dc/dcmitype/StillImage" />
        <dc:title></dc:title>
      </cc:Work>
    </rdf:RDF>
  </metadata>
  <g
     inkscape:label="Layer 1"
     inkscape:groupmode="layer"
     id="layer1"
     transform="translate(658.15706,-376.2127)">
    <g
       id="g6835"
       transform="matrix(1.25,0,0,-1.25,-1051.5218,3651.6698)"
       style="fill:#ffffff">
      <g
         clip-path="url(#clipPath4624)"
         id="g6837"
         style="fill:#ffffff">
        <path
           inkscape:connector-curvature="0"
           id="path6839"
           style="fill:#ffffff;fill-opacity:1;fill-rule:nonzero;stroke:none"
           d="m 405.842,2550.165 386.914,0 0,55.245 -386.914,0 0,-55.245 z" />
      </g>
    </g>
    <g
       id="g5942"
       transform="matrix(0.55809464,0,0,0.55809464,-929.76131,1.5740018)"
       style="fill:#ffffff">
      <g
         transform="matrix(1.25,0,0,-1.25,497.41429,716.57167)"
         id="g4600"
         style="fill:#ffffff">
        <path
           inkscape:connector-curvature="0"
           id="path4602"
           style="fill:#ffffff;fill-opacity:1;fill-rule:nonzero;stroke:none"
           d="M 0,0 0,-81.052 70.643,-116.354 141.28,-81.052 141.28,0 70.643,36.232 0,0 Z m 3.261,-79.035 0,77.042 67.382,34.559 67.377,-34.559 0,-77.042 -67.377,-33.673 -67.382,33.673 z" />
      </g>
      <g
         transform="matrix(1.25,0,0,-1.25,585.01691,859.43454)"
         id="g4604"
         style="fill:#ffffff">
        <path
           inkscape:connector-curvature="0"
           id="path4606"
           style="fill:#ffffff;fill-opacity:1;fill-rule:nonzero;stroke:none"
           d="M 0,0 69.607,35.07 0,70.139 0,0 Z M 4.891,62.198 58.736,35.07 4.891,7.941 l 0,54.257 z" />
      </g>
      <g
         transform="matrix(1.25,0,0,-1.25,500.02541,717.81029)"
         id="g4608"
         style="fill:#ffffff">
        <path
           inkscape:connector-curvature="0"
           id="path4610"
           style="fill:#ffffff;fill-opacity:1;fill-rule:nonzero;stroke:none"
           d="m 0,0 30.219,-15.384 35.827,-17.912 3.539,-1.772 0,70.127 L 0,0 Z m 32.423,-11.017 -21.597,10.995 53.869,27.139 0,-54.27 -32.272,16.136 z" />
      </g>
      <g
         transform="matrix(1.25,0,0,-1.25,585.01691,773.31241)"
         id="g4612"
         style="fill:#ffffff">
        <path
           inkscape:connector-curvature="0"
           id="path4614"
           style="fill:#ffffff;fill-opacity:1;fill-rule:nonzero;stroke:none"
           d="m 0,0 17.373,-8.685 48.044,-24.494 3.556,-1.814 0,79.472 L 0,79.473 0,0 Z m 19.577,-4.32 -14.686,7.344 0,68.482 59.192,-30.03 0,-68.484 -44.506,22.688 z" />
      </g>
      <g
         transform="matrix(1.25,0,0,-1.25,500.79041,816.30741)"
         id="g4616"
         style="fill:#ffffff">
        <path
           inkscape:connector-curvature="0"
           id="path4618"
           style="fill:#ffffff;fill-opacity:1;fill-rule:nonzero;stroke:none"
           d="m 0,0 68.973,-34.487 0,79.445 L 46.898,55.995 0,79.955 0,0 Z m 4.891,3.022 0,68.942 39.811,-20.338 19.381,-9.691 0,-68.508 L 4.891,3.022 Z" />
      </g>
    </g>
  </g>
</svg>
